<svg width="22" height="24" viewBox="0 0 22 24" fill="none" xmlns="http://www.w3.org/2000/svg">
<path d="M21.3733 7.17333L16.04 0.506667C15.9158 0.349528 15.7579 0.222381 15.5778 0.134666C15.3978 0.0469515 15.2003 0.000923313 15 0H1.66668C1.31305 0 0.973917 0.140476 0.723868 0.390524C0.47382 0.640573 0.333344 0.979711 0.333344 1.33333V8C0.333344 8.35362 0.47382 8.69276 0.723868 8.94281C0.973917 9.19286 1.31305 9.33333 1.66668 9.33333C2.0203 9.33333 2.35944 9.19286 2.60949 8.94281C2.85953 8.69276 3.00001 8.35362 3.00001 8V2.66667H12.3333V8C12.3333 8.35362 12.4738 8.69276 12.7239 8.94281C12.9739 9.19286 13.3131 9.33333 13.6667 9.33333H19V21.3333H3.00001V14.6667C3.00001 14.313 2.85953 13.9739 2.60949 13.7239C2.35944 13.4738 2.0203 13.3333 1.66668 13.3333C1.31305 13.3333 0.973917 13.4738 0.723868 13.7239C0.47382 13.9739 0.333344 14.313 0.333344 14.6667V22.6667C0.333344 23.0203 0.47382 23.3594 0.723868 23.6095C0.973917 23.8595 1.31305 24 1.66668 24H20.3333C20.687 24 21.0261 23.8595 21.2762 23.6095C21.5262 23.3594 21.6667 23.0203 21.6667 22.6667V8C21.6649 7.69925 21.5616 7.40792 21.3733 7.17333ZM15 3.46667L17.56 6.66667H15V3.46667Z" fill="#FFB9CD"/>
<path d="M11 10.6667C10.6464 10.6667 10.3072 10.8071 10.0572 11.0572C9.80714 11.3072 9.66667 11.6464 9.66667 12V13.3333H8.33333C7.97971 13.3333 7.64057 13.4738 7.39052 13.7238C7.14048 13.9739 7 14.313 7 14.6667C7 15.0203 7.14048 15.3594 7.39052 15.6095C7.64057 15.8595 7.97971 16 8.33333 16H9.66667V17.3333C9.66667 17.6869 9.80714 18.0261 10.0572 18.2761C10.3072 18.5262 10.6464 18.6667 11 18.6667C11.3536 18.6667 11.6928 18.5262 11.9428 18.2761C12.1929 18.0261 12.3333 17.6869 12.3333 17.3333V16H13.6667C14.0203 16 14.3594 15.8595 14.6095 15.6095C14.8595 15.3594 15 15.0203 15 14.6667C15 14.313 14.8595 13.9739 14.6095 13.7238C14.3594 13.4738 14.0203 13.3333 13.6667 13.3333H12.3333V12C12.3333 11.6464 12.1929 11.3072 11.9428 11.0572C11.6928 10.8071 11.3536 10.6667 11 10.6667Z" fill="#FFB9CD"/>
</svg>
