<svg width="24" height="24" viewBox="0 0 24 24" fill="none" xmlns="http://www.w3.org/2000/svg">
<path d="M22.6667 5.33333H18.6667V1.33333C18.6667 0.979711 18.5262 0.640573 18.2761 0.390524C18.0261 0.140476 17.687 0 17.3333 0H6.66667C6.31305 0 5.97391 0.140476 5.72386 0.390524C5.47381 0.640573 5.33333 0.979711 5.33333 1.33333V5.33333H1.33333C0.979711 5.33333 0.640573 5.47381 0.390524 5.72386C0.140476 5.97391 0 6.31305 0 6.66667V22.6667C0 23.0203 0.140476 23.3594 0.390524 23.6095C0.640573 23.8595 0.979711 24 1.33333 24H5.33333C5.68696 24 6.02609 23.8595 6.27614 23.6095C6.52619 23.3594 6.66667 23.0203 6.66667 22.6667C6.66667 22.313 6.52619 21.9739 6.27614 21.7239C6.02609 21.4738 5.68696 21.3333 5.33333 21.3333H2.66667V14.6667H8V16C8 16.3536 8.14048 16.6928 8.39052 16.9428C8.64057 17.1929 8.97971 17.3333 9.33333 17.3333H14.6667C15.0203 17.3333 15.3594 17.1929 15.6095 16.9428C15.8595 16.6928 16 16.3536 16 16V14.6667H21.3333V21.3333H10.6667C10.313 21.3333 9.97391 21.4738 9.72386 21.7239C9.47381 21.9739 9.33333 22.313 9.33333 22.6667C9.33333 23.0203 9.47381 23.3594 9.72386 23.6095C9.97391 23.8595 10.313 24 10.6667 24H22.6667C23.0203 24 23.3594 23.8595 23.6095 23.6095C23.8595 23.3594 24 23.0203 24 22.6667V6.66667C24 6.31305 23.8595 5.97391 23.6095 5.72386C23.3594 5.47381 23.0203 5.33333 22.6667 5.33333ZM8 2.66667H16V5.33333H8V2.66667ZM13.3333 14.6667H10.6667V12H13.3333V14.6667ZM16 12V10.6667C16 10.313 15.8595 9.97391 15.6095 9.72386C15.3594 9.47381 15.0203 9.33333 14.6667 9.33333H9.33333C8.97971 9.33333 8.64057 9.47381 8.39052 9.72386C8.14048 9.97391 8 10.313 8 10.6667V12H2.66667V8H21.3333V12H16Z" fill="#5149E4"/>
</svg>
