<svg width="24" height="24" viewBox="0 0 24 24" fill="none" xmlns="http://www.w3.org/2000/svg">
<path d="M17.8266 7.34667C18.4728 7.7697 19.2276 7.99661 20 8C20.7911 8 21.5645 7.76541 22.2223 7.32588C22.8801 6.88635 23.3927 6.26164 23.6955 5.53074C23.9982 4.79983 24.0775 3.99556 23.9231 3.21964C23.7688 2.44372 23.3878 1.73098 22.8284 1.17157C22.269 0.612165 21.5563 0.231202 20.7803 0.0768607C20.0044 -0.0774802 19.2001 0.00173314 18.4692 0.304484C17.7383 0.607234 17.1136 1.11992 16.6741 1.77772C16.2346 2.43552 16 3.20888 16 4C16.0036 4.40799 16.0711 4.8129 16.2 5.2L14.1333 7.29334C13.3615 6.80537 12.446 6.59616 11.5388 6.70046C10.6317 6.80475 9.78756 7.21628 9.14664 7.86667L7.91997 7.46667C7.97427 7.20349 8.00108 6.93539 7.99997 6.66667C8.0035 5.76133 7.6998 4.88157 7.13852 4.17121C6.57723 3.46085 5.79157 2.96192 4.90996 2.75596C4.02836 2.55 3.10296 2.64921 2.28504 3.03737C1.46713 3.42553 0.805084 4.07967 0.407137 4.89287C0.00919044 5.70607 -0.101119 6.63021 0.0942414 7.51422C0.289602 8.39824 0.779075 9.18983 1.48265 9.7596C2.18622 10.3294 3.06227 10.6436 3.96758 10.6509C4.8729 10.6583 5.75393 10.3583 6.46664 9.8L7.99997 10.3067C7.99344 10.4266 7.99344 10.5468 7.99997 10.6667C7.99997 11.7275 8.4214 12.745 9.17155 13.4951C9.92169 14.2452 10.9391 14.6667 12 14.6667C13.0608 14.6667 14.0783 14.2452 14.8284 13.4951C15.5785 12.745 16 11.7275 16 10.6667C15.9909 10.2407 15.919 9.81835 15.7866 9.41334L17.8266 7.34667ZM20 2.66667C20.2637 2.66667 20.5215 2.74487 20.7407 2.89138C20.96 3.03788 21.1309 3.24612 21.2318 3.48976C21.3327 3.73339 21.3591 4.00148 21.3077 4.26012C21.2562 4.51876 21.1293 4.75634 20.9428 4.94281C20.7563 5.12928 20.5187 5.25627 20.2601 5.30772C20.0015 5.35916 19.7334 5.33276 19.4897 5.23184C19.2461 5.13092 19.0379 4.96003 18.8913 4.74076C18.7448 4.5215 18.6666 4.26371 18.6666 4C18.6666 3.64638 18.8071 3.30724 19.0572 3.05719C19.3072 2.80714 19.6464 2.66667 20 2.66667ZM2.66664 6.66667C2.66664 6.40296 2.74484 6.14517 2.89135 5.92591C3.03786 5.70664 3.24609 5.53575 3.48973 5.43483C3.73336 5.33391 4.00145 5.30751 4.26009 5.35895C4.51874 5.4104 4.75631 5.53739 4.94278 5.72386C5.12925 5.91033 5.25624 6.14791 5.30769 6.40655C5.35913 6.66519 5.33273 6.93328 5.23181 7.17691C5.1309 7.42055 4.96 7.62879 4.74073 7.77529C4.52147 7.9218 4.26368 8 3.99997 8C3.64635 8 3.30721 7.85953 3.05717 7.60948C2.80712 7.35943 2.66664 7.02029 2.66664 6.66667ZM12 12C11.7363 12 11.4785 11.9218 11.2592 11.7753C11.0399 11.6288 10.8691 11.4205 10.7681 11.1769C10.6672 10.9333 10.6408 10.6652 10.6923 10.4065C10.7437 10.1479 10.8707 9.91033 11.0572 9.72386C11.2436 9.53739 11.4812 9.4104 11.7399 9.35896C11.9985 9.30751 12.2666 9.33391 12.5102 9.43483C12.7539 9.53575 12.9621 9.70664 13.1086 9.92591C13.2551 10.1452 13.3333 10.403 13.3333 10.6667C13.3333 11.0203 13.1928 11.3594 12.9428 11.6095C12.6927 11.8595 12.3536 12 12 12Z" fill="#00A389"/>
<path d="M6.66665 12H2.66665C2.31302 12 1.97389 12.1405 1.72384 12.3905C1.47379 12.6406 1.33331 12.9797 1.33331 13.3333V22.6667C1.33331 23.0203 1.47379 23.3594 1.72384 23.6095C1.97389 23.8595 2.31302 24 2.66665 24H6.66665C7.02027 24 7.35941 23.8595 7.60945 23.6095C7.8595 23.3594 7.99998 23.0203 7.99998 22.6667V13.3333C7.99998 12.9797 7.8595 12.6406 7.60945 12.3905C7.35941 12.1405 7.02027 12 6.66665 12ZM5.33331 21.3333H3.99998V14.6667H5.33331V21.3333ZM22.6666 9.33334H18.6666C18.313 9.33334 17.9739 9.47382 17.7238 9.72387C17.4738 9.97392 17.3333 10.3131 17.3333 10.6667V22.6667C17.3333 23.0203 17.4738 23.3594 17.7238 23.6095C17.9739 23.8595 18.313 24 18.6666 24H22.6666C23.0203 24 23.3594 23.8595 23.6095 23.6095C23.8595 23.3594 24 23.0203 24 22.6667V18.6667C24 18.3131 23.8595 17.9739 23.6095 17.7239C23.3594 17.4738 23.0203 17.3333 22.6666 17.3333C22.313 17.3333 21.9739 17.4738 21.7238 17.7239C21.4738 17.9739 21.3333 18.3131 21.3333 18.6667V21.3333H20V12H21.3333V14.6667C21.3333 15.0203 21.4738 15.3594 21.7238 15.6095C21.9739 15.8595 22.313 16 22.6666 16C23.0203 16 23.3594 15.8595 23.6095 15.6095C23.8595 15.3594 24 15.0203 24 14.6667V10.6667C24 10.3131 23.8595 9.97392 23.6095 9.72387C23.3594 9.47382 23.0203 9.33334 22.6666 9.33334ZM14.6666 16H10.6666C10.313 16 9.97389 16.1405 9.72384 16.3905C9.47379 16.6406 9.33331 16.9797 9.33331 17.3333V22.6667C9.33331 23.0203 9.47379 23.3594 9.72384 23.6095C9.97389 23.8595 10.313 24 10.6666 24H14.6666C15.0203 24 15.3594 23.8595 15.6095 23.6095C15.8595 23.3594 16 23.0203 16 22.6667V17.3333C16 16.9797 15.8595 16.6406 15.6095 16.3905C15.3594 16.1405 15.0203 16 14.6666 16ZM13.3333 21.3333H12V18.6667H13.3333V21.3333Z" fill="#00A389"/>
</svg>
