<svg width="32" height="33" viewBox="0 0 32 33" fill="none" xmlns="http://www.w3.org/2000/svg">
<path d="M28.0001 17.62C27.949 17.3045 27.7862 17.0179 27.5415 16.8123C27.2968 16.6067 26.9863 16.4959 26.6667 16.5H21.3334C21.528 16.5025 21.7208 16.4624 21.8982 16.3825C22.0756 16.3026 22.2334 16.1848 22.3605 16.0374C22.4875 15.89 22.5808 15.7166 22.6337 15.5293C22.6866 15.342 22.6979 15.1455 22.6667 14.9534L21.3334 6.95336C21.2823 6.63786 21.1195 6.35122 20.8748 6.14565C20.6301 5.94007 20.3197 5.82925 20.0001 5.83336H12.0001C11.6805 5.82925 11.37 5.94007 11.1253 6.14565C10.8806 6.35122 10.7178 6.63786 10.6667 6.95336L9.3334 14.9534C9.30291 15.1449 9.31455 15.3407 9.36752 15.5272C9.42048 15.7137 9.51349 15.8865 9.64007 16.0334C9.7667 16.1814 9.92425 16.3 10.1016 16.3806C10.279 16.4612 10.4719 16.502 10.6667 16.5H5.3334C5.01381 16.4959 4.70338 16.6067 4.45865 16.8123C4.21392 17.0179 4.05118 17.3045 4.00007 17.62L2.66673 25.62C2.63624 25.8115 2.64789 26.0074 2.70085 26.1939C2.75382 26.3804 2.84683 26.5531 2.9734 26.7C3.10004 26.8481 3.25759 26.9666 3.43496 27.0473C3.61234 27.1279 3.80523 27.1686 4.00007 27.1667H14.6667C14.8593 27.1667 15.0496 27.125 15.2246 27.0444C15.3995 26.9639 15.5549 26.8464 15.6801 26.7C15.8066 26.5531 15.8996 26.3804 15.9526 26.1939C16.0056 26.0074 16.0172 25.8115 15.9867 25.62L14.6534 17.62C14.6026 17.3068 14.4418 17.022 14.1999 16.8167C13.9579 16.6114 13.6507 16.4991 13.3334 16.5H18.6667C18.3471 16.4959 18.0367 16.6067 17.792 16.8123C17.5473 17.0179 17.3845 17.3045 17.3334 17.62L16.0001 25.62C15.9696 25.8115 15.9812 26.0074 16.0342 26.1939C16.0871 26.3804 16.1802 26.5531 16.3067 26.7C16.4334 26.8481 16.5909 26.9666 16.7683 27.0473C16.9457 27.1279 17.1386 27.1686 17.3334 27.1667H21.3334C21.687 27.1667 22.0262 27.0262 22.2762 26.7762C22.5263 26.5261 22.6667 26.187 22.6667 25.8334C22.6667 25.4797 22.5263 25.1406 22.2762 24.8906C22.0262 24.6405 21.687 24.5 21.3334 24.5H18.9067L19.8001 19.1667H25.5334L26.4267 24.5H25.3334C24.9798 24.5 24.6406 24.6405 24.3906 24.8906C24.1405 25.1406 24.0001 25.4797 24.0001 25.8334C24.0001 26.187 24.1405 26.5261 24.3906 26.7762C24.6406 27.0262 24.9798 27.1667 25.3334 27.1667H28.0001C28.1947 27.1692 28.3874 27.1291 28.5649 27.0492C28.7423 26.9692 28.9001 26.8515 29.0271 26.7041C29.1542 26.5567 29.2475 26.3832 29.3004 26.196C29.3533 26.0087 29.3646 25.8121 29.3334 25.62L28.0001 17.62ZM5.5734 24.5L6.46673 19.1667H12.2001L13.0934 24.5H5.5734ZM12.2401 13.8334L13.1334 8.50003H18.8667L19.7601 13.8334H12.2401Z" fill="#FF5B5B"/>
</svg>
