<svg width="141" height="48" viewBox="0 0 141 48" fill="none" xmlns="http://www.w3.org/2000/svg">
<path d="M67.392 32L68.9943 27.3807H75.8125L77.4062 32H80.2017L73.9205 14.5455H70.8778L64.5966 32H67.392ZM69.7614 25.1648L72.3352 17.7159H72.4716L75.0455 25.1648H69.7614ZM92.2337 22.1051C91.7053 20.0682 90.1115 18.7386 87.282 18.7386C84.3246 18.7386 82.228 20.2983 82.228 22.6165C82.228 24.4744 83.353 25.7102 85.8075 26.2557L88.0234 26.7415C89.2848 27.0227 89.8729 27.5852 89.8729 28.4034C89.8729 29.4176 88.7905 30.2102 87.12 30.2102C85.5945 30.2102 84.6143 29.554 84.3075 28.267L81.8445 28.642C82.2706 30.9602 84.1967 32.2642 87.1371 32.2642C90.299 32.2642 92.4893 30.5852 92.4893 28.2159C92.4893 26.3665 91.3132 25.2244 88.9098 24.6705L86.8303 24.1932C85.3899 23.8523 84.7678 23.3665 84.7763 22.4801C84.7678 21.4744 85.8587 20.7585 87.3075 20.7585C88.8928 20.7585 89.6257 21.6364 89.924 22.5142L92.2337 22.1051ZM101.402 18.9091H98.7173V15.7727H96.169V18.9091H94.2514V20.9545H96.169V28.6847C96.1605 31.0625 97.9759 32.2131 99.9872 32.1705C100.797 32.1619 101.342 32.0085 101.641 31.8977L101.18 29.7926C101.01 29.8267 100.695 29.9034 100.286 29.9034C99.4588 29.9034 98.7173 29.6307 98.7173 28.1562V20.9545H101.402V18.9091ZM104.221 32H106.769V24.0057C106.769 22.2926 108.09 21.0568 109.897 21.0568C110.425 21.0568 111.022 21.1506 111.227 21.2102V18.7727C110.971 18.7386 110.468 18.7131 110.144 18.7131C108.61 18.7131 107.298 19.5824 106.82 20.9886H106.684V18.9091H104.221V32ZM117.124 32.2898C119.289 32.2898 120.508 31.1903 120.994 30.2102H121.096V32H123.585V23.3068C123.585 19.4972 120.585 18.7386 118.505 18.7386C116.136 18.7386 113.954 19.6932 113.102 22.0795L115.496 22.625C115.871 21.696 116.826 20.8011 118.539 20.8011C120.184 20.8011 121.028 21.6619 121.028 23.1449V23.2045C121.028 24.1335 120.073 24.1165 117.721 24.3892C115.241 24.679 112.701 25.3267 112.701 28.3011C112.701 30.875 114.636 32.2898 117.124 32.2898ZM117.678 30.2443C116.238 30.2443 115.198 29.5966 115.198 28.3352C115.198 26.9716 116.408 26.4858 117.883 26.2898C118.71 26.179 120.67 25.9574 121.036 25.5909V27.2784C121.036 28.8295 119.8 30.2443 117.678 30.2443ZM138.365 36.9091V18.9091H135.876V21.0312H135.663C135.212 20.2216 134.334 18.7386 131.905 18.7386C128.743 18.7386 126.408 21.2358 126.408 25.4801C126.408 29.7159 128.709 32.2557 131.879 32.2557C134.266 32.2557 135.203 30.7983 135.663 29.9631H135.817V36.9091H138.365ZM135.868 25.4545C135.868 28.2074 134.641 30.0824 132.45 30.0824C130.175 30.0824 128.982 28.0795 128.982 25.4545C128.982 22.8551 130.141 20.9034 132.45 20.9034C134.675 20.9034 135.868 22.7188 135.868 25.4545Z" fill="#0A0603"/>
<mask id="mask0_6_4" style="mask-type:alpha" maskUnits="userSpaceOnUse" x="0" y="0" width="48" height="48">
<rect width="48" height="48" fill="#C4C4C4"/>
</mask>
<g mask="url(#mask0_6_4)">
<rect width="48" height="48" fill="#5149E4"/>
<rect x="24" y="-24" width="48" height="48" fill="#FFB9CD"/>
</g>
</svg>
